<svg width="12" height="12" viewBox="0 0 12 12" fill="none" xmlns="http://www.w3.org/2000/svg">
<g clip-path="url(#clip0_177_8349)">
<path d="M11.0073 5.71315C11.0555 5.55243 11.0796 5.38636 11.0796 5.21761C11.0796 4.83859 10.9551 4.47431 10.7301 4.17699C10.7783 4.01627 10.8024 3.8502 10.8024 3.68145C10.8024 3.30243 10.6778 2.93815 10.4528 2.64083C10.5011 2.48011 10.5252 2.31404 10.5252 2.14529C10.5252 1.45422 10.114 0.831451 9.47651 0.559576C9.36445 0.511266 9.24362 0.486644 9.1216 0.487255H1.07115C0.834096 0.487255 0.642578 0.678773 0.642578 0.915826V5.79083C0.642578 6.02788 0.834096 6.2194 1.07115 6.2194H2.80285L3.95195 10.3819C4.13678 11.0529 4.75285 11.5216 5.44928 11.5216C5.84704 11.5216 6.21802 11.3636 6.49258 11.0743C6.76713 10.7864 6.90776 10.4087 6.88767 10.0109L6.80731 8.36493H10.0203C10.1823 8.36493 10.3403 8.32208 10.4796 8.24038C11.0207 7.92565 11.3569 7.35511 11.3569 6.75377C11.3569 6.37475 11.2323 6.01047 11.0073 5.71315ZM1.60686 5.25377V1.4502H2.69169V5.25377H1.60686ZM10.0069 7.40199H5.79615L5.92472 10.0591C5.93276 10.2185 5.86177 10.3685 5.72919 10.4676C5.64749 10.5279 5.54704 10.5587 5.4466 10.5573C5.31827 10.5561 5.19381 10.5133 5.0919 10.4353C4.98999 10.3573 4.91613 10.2483 4.88142 10.1248L3.54883 5.29663V1.4502H9.11222C9.24609 1.5102 9.35978 1.60759 9.43961 1.73066C9.51944 1.85374 9.56202 1.99725 9.56222 2.14395C9.56222 2.27386 9.53142 2.39708 9.46981 2.50958L9.28365 2.84975L9.57695 3.10422C9.65951 3.17572 9.72569 3.26417 9.77099 3.36355C9.81628 3.46293 9.83964 3.5709 9.83945 3.68011C9.83945 3.81002 9.80865 3.93324 9.74704 4.04574L9.56088 4.38592L9.85419 4.64038C9.93674 4.71188 10.0029 4.80033 10.0482 4.89971C10.0935 4.99909 10.1169 5.10706 10.1167 5.21627C10.1167 5.34618 10.0859 5.4694 10.0243 5.5819L9.83677 5.92342L10.1301 6.17788C10.2126 6.24938 10.2788 6.33783 10.3241 6.43721C10.3694 6.53659 10.3928 6.64456 10.3926 6.75377C10.3926 7.00958 10.2453 7.256 10.0069 7.40199Z" fill="#8D939E"/>
</g>
<defs>
<clipPath id="clip0_177_8349">
<rect width="12" height="12" fill="white" transform="translate(0 0.000976562)"/>
</clipPath>
</defs>
</svg>
