<svg width="12" height="12" viewBox="0 0 12 12" fill="none" xmlns="http://www.w3.org/2000/svg">
<g clip-path="url(#clip0_177_8345)">
<path d="M11.0073 6.29128C11.2323 5.99396 11.3569 5.62967 11.3569 5.25065C11.3569 4.64931 11.0207 4.08012 10.4796 3.76271C10.3403 3.681 10.1817 3.638 10.0203 3.63815H6.80865L6.88901 1.99217C6.90776 1.5944 6.76713 1.21672 6.49392 0.928777C6.35984 0.78685 6.19807 0.673928 6.01863 0.596989C5.83918 0.52005 5.64586 0.480729 5.45061 0.481455C4.75419 0.481455 4.13811 0.950205 3.95329 1.62119L2.80285 5.78637H1.07115C0.834096 5.78637 0.642578 5.97788 0.642578 6.21494V11.0899C0.642578 11.327 0.834096 11.5185 1.07115 11.5185H9.12428C9.24749 11.5185 9.36802 11.4944 9.47919 11.4462C10.1167 11.1743 10.5278 10.5515 10.5278 9.86047C10.5278 9.69172 10.5037 9.52565 10.4555 9.36494C10.6805 9.06762 10.8051 8.70333 10.8051 8.32431C10.8051 8.15556 10.781 7.98949 10.7328 7.82878C10.9578 7.53146 11.0823 7.16717 11.0823 6.78815C11.0796 6.6194 11.0555 6.45199 11.0073 6.29128ZM1.60686 10.5542V6.75065H2.69169V10.5542H1.60686ZM10.1301 5.82654L9.83677 6.08101L10.0229 6.42119C10.0843 6.53325 10.1161 6.65907 10.1153 6.78681C10.1153 7.0078 10.0189 7.21806 9.85285 7.36271L9.55954 7.61717L9.7457 7.95735C9.80704 8.06941 9.83884 8.19523 9.83811 8.32297C9.83811 8.54396 9.74169 8.75422 9.57561 8.89887L9.28231 9.15333L9.46847 9.49351C9.5298 9.60557 9.56161 9.73139 9.56088 9.85913C9.56088 10.1591 9.3841 10.4297 9.11088 10.5529H3.54883V6.70779L4.88142 1.87967C4.91578 1.75592 4.98954 1.64674 5.09153 1.56868C5.19352 1.49062 5.31817 1.44793 5.4466 1.44708C5.54838 1.44708 5.64883 1.47654 5.72919 1.53681C5.86177 1.63592 5.93276 1.78592 5.92472 1.94529L5.79615 4.60244H10.0069C10.2453 4.74842 10.3926 4.99485 10.3926 5.25065C10.3926 5.47163 10.2962 5.68056 10.1301 5.82654Z" fill="#8D939E"/>
</g>
<defs>
<clipPath id="clip0_177_8345">
<rect width="12" height="12" fill="white" transform="translate(0 0.000976562)"/>
</clipPath>
</defs>
</svg>
