<svg width="24" height="24" viewBox="0 0 24 24" fill="none" xmlns="http://www.w3.org/2000/svg">
<path d="M19.2001 1.6001H11.2C10.7594 1.6001 10.4 1.95947 10.4 2.4001V5.6001L13.2813 7.75947C13.4813 7.9126 13.6 8.15322 13.6 8.4001V11.2001H20V2.4001C20 1.95947 19.6407 1.6001 19.2001 1.6001ZM12.4001 5.6001C12.175 5.6001 12 5.4251 12 5.2001V3.6001C12 3.3751 12.175 3.2001 12.4001 3.2001H14C14.225 3.2001 14.4001 3.3751 14.4001 3.6001V5.2001C14.4001 5.4251 14.225 5.6001 14 5.6001H12.4001ZM18.4001 3.6001V5.2001C18.4001 5.4251 18.225 5.6001 18 5.6001H16.4001C16.175 5.6001 16.0001 5.4251 16.0001 5.2001V3.6001C16.0001 3.3751 16.175 3.2001 16.4001 3.2001H18C18.225 3.2001 18.4001 3.3751 18.4001 3.6001ZM18 9.6001H16.4001C16.175 9.6001 16.0001 9.4251 16.0001 9.2001V7.6001C16.0001 7.3751 16.175 7.2001 16.4001 7.2001H18C18.225 7.2001 18.4001 7.3751 18.4001 7.6001V9.2001C18.4001 9.4251 18.225 9.6001 18 9.6001ZM0.800049 9.20947V21.6001C0.800049 22.0407 1.15942 22.4001 1.60005 22.4001H11.2C11.6407 22.4001 12 22.0407 12 21.6001V9.20947C12 8.95322 11.8719 8.7126 11.6625 8.55947L6.86255 5.1376C6.72817 5.03135 6.55942 4.98447 6.40005 4.98447C6.24067 4.98447 6.07192 5.03135 5.93755 5.1376L1.13755 8.55947C0.928174 8.7126 0.800049 8.95322 0.800049 9.20947ZM5.20005 16.0001H3.60005C3.37505 16.0001 3.20005 15.8251 3.20005 15.6001V14.0001C3.20005 13.7751 3.37505 13.6001 3.60005 13.6001H5.20005C5.42505 13.6001 5.60005 13.7751 5.60005 14.0001V15.6001C5.60005 15.8251 5.42505 16.0001 5.20005 16.0001ZM5.60005 18.0001V19.6001C5.60005 19.8251 5.42505 20.0001 5.20005 20.0001H3.60005C3.37505 20.0001 3.20005 19.8251 3.20005 19.6001V18.0001C3.20005 17.7751 3.37505 17.6001 3.60005 17.6001H5.20005C5.42505 17.6001 5.60005 17.7751 5.60005 18.0001ZM5.20005 12.0001H3.60005C3.37505 12.0001 3.20005 11.8251 3.20005 11.6001V10.0001C3.20005 9.7751 3.37505 9.6001 3.60005 9.6001H5.20005C5.42505 9.6001 5.60005 9.7751 5.60005 10.0001V11.6001C5.60005 11.8251 5.42505 12.0001 5.20005 12.0001ZM7.60005 13.6001H9.20005C9.42505 13.6001 9.60005 13.7751 9.60005 14.0001V15.6001C9.60005 15.8251 9.42505 16.0001 9.20005 16.0001H7.60005C7.37505 16.0001 7.20005 15.8251 7.20005 15.6001V14.0001C7.20005 13.7751 7.37505 13.6001 7.60005 13.6001ZM7.20005 11.6001V10.0001C7.20005 9.7751 7.37505 9.6001 7.60005 9.6001H9.20005C9.42505 9.6001 9.60005 9.7751 9.60005 10.0001V11.6001C9.60005 11.8251 9.42505 12.0001 9.20005 12.0001H7.60005C7.37505 12.0001 7.20005 11.8251 7.20005 11.6001ZM7.60005 17.6001H9.20005C9.42505 17.6001 9.60005 17.7751 9.60005 18.0001V19.6001C9.60005 19.8251 9.42505 20.0001 9.20005 20.0001H7.60005C7.37505 20.0001 7.20005 19.8251 7.20005 19.6001V18.0001C7.20005 17.7751 7.37505 17.6001 7.60005 17.6001ZM13.6 13.6001V21.6001C13.6 22.0407 13.9594 22.4001 14.4001 22.4001H22.4001C22.8407 22.4001 23.2001 22.0407 23.2001 21.6001V13.6001C23.2001 13.1595 22.8407 12.8001 22.4001 12.8001H14.4001C13.9594 12.8001 13.6 13.1595 13.6 13.6001ZM15.6 14.4001H17.2001C17.4251 14.4001 17.6 14.5751 17.6 14.8001V16.4001C17.6 16.6251 17.4251 16.8001 17.2001 16.8001H15.6C15.3751 16.8001 15.2001 16.6251 15.2001 16.4001V14.8001C15.2001 14.5751 15.3751 14.4001 15.6 14.4001ZM21.6 14.8001V16.4001C21.6 16.6251 21.4251 16.8001 21.2001 16.8001H19.6C19.375 16.8001 19.2001 16.6251 19.2001 16.4001V14.8001C19.2001 14.5751 19.375 14.4001 19.6 14.4001H21.2001C21.4251 14.4001 21.6 14.5751 21.6 14.8001ZM21.2001 20.8001H19.6C19.375 20.8001 19.2001 20.6251 19.2001 20.4001V18.8001C19.2001 18.5751 19.375 18.4001 19.6 18.4001H21.2001C21.4251 18.4001 21.6 18.5751 21.6 18.8001V20.4001C21.6 20.6251 21.4251 20.8001 21.2001 20.8001ZM15.6 18.4001H17.2001C17.4251 18.4001 17.6 18.5751 17.6 18.8001V20.4001C17.6 20.6251 17.4251 20.8001 17.2001 20.8001H15.6C15.3751 20.8001 15.2001 20.6251 15.2001 20.4001V18.8001C15.2001 18.5751 15.3751 18.4001 15.6 18.4001Z" fill="white"/>
</svg>
