<svg width="24" height="24" viewBox="0 0 24 24" fill="none" xmlns="http://www.w3.org/2000/svg">
<path d="M9.60005 1.58739C9.22192 1.59052 8.8938 1.85614 8.8188 2.23114L8.43442 3.99989H4.80005C3.91567 3.99989 3.20005 4.71552 3.20005 5.59989V15.1999H2.40005C2.11255 15.1968 1.8438 15.3468 1.69692 15.5968C1.55317 15.8468 1.55317 16.153 1.69692 16.403C1.8438 16.653 2.11255 16.803 2.40005 16.7999H5.65005L4.8188 20.628C4.74692 20.9124 4.83442 21.2124 5.05005 21.4124C5.26255 21.6124 5.5688 21.678 5.84692 21.5874C6.12505 21.4936 6.32817 21.2593 6.3813 20.9718L7.28755 16.7999H11.2V19.1999C11.1969 19.4874 11.3469 19.7561 11.5969 19.903C11.8469 20.0468 12.1532 20.0468 12.4032 19.903C12.6532 19.7561 12.8032 19.4874 12.8 19.1999V16.7999H16.7125L17.6188 20.9718C17.6719 21.2593 17.875 21.4936 18.1532 21.5874C18.4313 21.678 18.7375 21.6124 18.95 21.4124C19.1657 21.2124 19.2532 20.9124 19.1813 20.628L18.35 16.7999H21.6C21.8875 16.803 22.1563 16.653 22.3032 16.403C22.4469 16.153 22.4469 15.8468 22.3032 15.5968C22.1563 15.3468 21.8875 15.1968 21.6 15.1999H20.8V5.59989C20.8 4.71552 20.0844 3.99989 19.2 3.99989H15.5657L15.1813 2.23114C15.1032 1.84989 14.7625 1.57802 14.375 1.58739C14.1344 1.59677 13.9094 1.70927 13.7657 1.89989C13.6188 2.09052 13.5657 2.33739 13.6188 2.56864L13.9282 3.99989H10.0719L10.3813 2.56864C10.4375 2.33114 10.3813 2.08114 10.2282 1.89052C10.075 1.69989 9.84692 1.58739 9.60005 1.58739ZM17.2 5.59989C17.8625 5.59989 18.4 6.13739 18.4 6.79989C18.4 7.46239 17.8625 7.99989 17.2 7.99989C16.5375 7.99989 16 7.46239 16 6.79989C16 6.13739 16.5375 5.59989 17.2 5.59989ZM8.80005 8.82177C9.3063 8.82177 9.81255 9.01239 10.2 9.39989L12.925 12.1249C13.2625 12.4624 13.8063 12.4593 14.1469 12.1218C14.4844 11.7843 14.4844 11.2343 14.1469 10.8968L14.0657 10.8155C14.9375 10.2499 16.0907 10.2655 16.95 10.9124L18.4 11.9999V13.5999H5.60005V11.1999L7.40005 9.39989C7.78755 9.01239 8.2938 8.82177 8.80005 8.82177Z" fill="white"/>
</svg>
