<svg width="24" height="24" viewBox="0 0 24 24" fill="none" xmlns="http://www.w3.org/2000/svg">
<path d="M6.86885 1.6001C6.6626 1.6001 6.45947 1.67822 6.30322 1.83447L1.83447 6.30322C1.52197 6.61572 1.52197 7.12197 1.83447 7.43447L6.46885 12.0688L7.6001 10.9376L3.53135 6.86885L6.86885 3.53135L7.90322 4.56572L6.86885 5.6001L8.0001 6.73135L9.03447 5.69697L9.90322 6.56572L8.23447 8.23447L9.26885 9.26885L12.0688 6.46885L7.43447 1.83447C7.27822 1.67822 7.0751 1.6001 6.86885 1.6001ZM19.0626 2.4001C18.6532 2.4001 18.2407 2.55947 17.9282 2.86885L16.8001 4.0001L20.0001 7.2001L21.1282 6.06885C21.7532 5.44697 21.7563 4.43447 21.1313 3.80947L20.1907 2.86885C19.8782 2.55635 19.4688 2.4001 19.0626 2.4001ZM15.2001 5.6001L4.18447 16.6157L5.2001 17.2001L5.6001 18.4001L6.8001 18.8001L7.38447 19.8157L18.4001 8.8001L15.2001 5.6001ZM17.5313 11.9313L14.7313 14.7313L15.7657 15.7657L17.4345 14.097L18.3032 14.9657L17.2688 16.0001L18.4001 17.1313L19.4345 16.097L20.4688 17.1313L17.1313 20.4688L13.0626 16.4001L11.9313 17.5313L16.5657 22.1657C16.722 22.322 16.9251 22.4001 17.1313 22.4001C17.3376 22.4001 17.5407 22.322 17.697 22.1657L22.1657 17.697C22.4782 17.3845 22.4782 16.8782 22.1657 16.5657L17.5313 11.9313ZM3.1126 19.1126L2.43135 21.047C2.40947 21.097 2.4001 21.147 2.4001 21.2001C2.4001 21.422 2.57822 21.6001 2.8001 21.6001C2.8501 21.6001 2.9001 21.5907 2.94385 21.5751L4.8876 20.8876L3.1126 19.1126Z" fill="white"/>
</svg>
