<svg width="24" height="24" viewBox="0 0 24 24" fill="none" xmlns="http://www.w3.org/2000/svg">
<path d="M12 4.80005C8.74692 4.80005 4.32192 5.64692 4.3188 5.65005H4.31567C3.36567 5.8438 2.62192 6.60005 2.4438 7.5563L2.44067 7.55942L0.868799 16.1438V16.1469C0.825049 16.3563 0.800049 16.575 0.800049 16.8C0.800049 18.5688 2.2313 20 4.00005 20C4.95005 20 5.79067 19.5782 6.37817 18.9219L6.38755 18.9282L7.60005 17.6H16.4001L17.6126 18.9282L17.6219 18.9219C18.2094 19.5782 19.0501 20 20 20C21.7688 20 23.2001 18.5688 23.2001 16.8C23.2001 16.575 23.1751 16.3563 23.1313 16.1469L23.1344 16.1438L21.5594 7.55942L21.5563 7.5563C21.3782 6.60005 20.6344 5.8438 19.6844 5.65005C19.6813 5.64692 19.6813 5.65005 19.6813 5.65005C19.6782 5.64692 15.2532 4.80005 12 4.80005ZM6.40005 9.60005C6.84067 9.60005 7.20005 9.95942 7.20005 10.4V11.2H8.00005C8.44067 11.2 8.80005 11.5594 8.80005 12C8.80005 12.4407 8.44067 12.8 8.00005 12.8H7.20005V13.6C7.20005 14.0407 6.84067 14.4 6.40005 14.4C5.95942 14.4 5.60005 14.0407 5.60005 13.6V12.8H4.80005C4.35942 12.8 4.00005 12.4407 4.00005 12C4.00005 11.5594 4.35942 11.2 4.80005 11.2H5.60005V10.4C5.60005 9.95942 5.95942 9.60005 6.40005 9.60005ZM17.6 9.60005C18.0407 9.60005 18.4001 9.95942 18.4001 10.4C18.4001 10.8407 18.0407 11.2 17.6 11.2C17.1594 11.2 16.8001 10.8407 16.8001 10.4C16.8001 9.95942 17.1594 9.60005 17.6 9.60005ZM16.0001 11.2C16.4407 11.2 16.8001 11.5594 16.8001 12C16.8001 12.4407 16.4407 12.8 16.0001 12.8C15.5594 12.8 15.2001 12.4407 15.2001 12C15.2001 11.5594 15.5594 11.2 16.0001 11.2ZM19.2001 11.2C19.6407 11.2 20 11.5594 20 12C20 12.4407 19.6407 12.8 19.2001 12.8C18.7594 12.8 18.4001 12.4407 18.4001 12C18.4001 11.5594 18.7594 11.2 19.2001 11.2ZM17.6 12.8C18.0407 12.8 18.4001 13.1594 18.4001 13.6C18.4001 14.0407 18.0407 14.4 17.6 14.4C17.1594 14.4 16.8001 14.0407 16.8001 13.6C16.8001 13.1594 17.1594 12.8 17.6 12.8Z" fill="white"/>
</svg>
