<svg width="24" height="24" viewBox="0 0 24 24" fill="none" xmlns="http://www.w3.org/2000/svg">
<path d="M6 1C4.23125 1 2.8 2.43125 2.8 4.2C2.8 5.96875 4.23125 7.4 6 7.4C7.76875 7.4 9.2 5.96875 9.2 4.2C9.2 2.43125 7.76875 1 6 1ZM13.2 2.6C11.875 2.6 10.8 3.675 10.8 5C10.8 6.325 11.875 7.4 13.2 7.4C14.525 7.4 15.6 6.325 15.6 5C15.6 3.675 14.525 2.6 13.2 2.6ZM6 3.4C6.44063 3.4 6.8 3.75938 6.8 4.2C6.8 4.64063 6.44063 5 6 5C5.55938 5 5.2 4.64063 5.2 4.2C5.2 3.75938 5.55938 3.4 6 3.4ZM13.2 4.2C13.6406 4.2 14 4.55938 14 5C14 5.44063 13.6406 5.8 13.2 5.8C12.7594 5.8 12.4 5.44063 12.4 5C12.4 4.55938 12.7594 4.2 13.2 4.2ZM3.6 8.2C2.71562 8.2 2 8.91563 2 9.8V17.8C2 18.6844 2.71562 19.4 3.6 19.4H5.1875C5.19063 19.6156 5.275 19.8188 5.42812 19.9688C5.57812 20.1188 5.7875 20.2031 6 20.2H6.10625L5.33438 21.3563C5.17188 21.5938 5.14688 21.9031 5.275 22.1625C5.4 22.4219 5.65625 22.5906 5.94688 22.6094C6.23438 22.625 6.50938 22.4875 6.66563 22.2438L8.02813 20.2H10.3719L11.7344 22.2438C11.8906 22.4875 12.1656 22.625 12.4531 22.6094C12.7438 22.5906 13 22.4219 13.125 22.1625C13.2531 21.9031 13.2281 21.5938 13.0656 21.3563L12.2969 20.2H12.4C12.6125 20.2031 12.8219 20.1188 12.9719 19.9688C13.125 19.8188 13.2094 19.6156 13.2125 19.4H14.8C15.6844 19.4 16.4 18.6844 16.4 17.8V9.8C16.4 8.91563 15.6844 8.2 14.8 8.2H3.6ZM22 9C21.8406 9 21.6875 9.04688 21.5531 9.1375L18 11.4V16.2L21.5438 18.4594C21.5563 18.4656 21.5688 18.475 21.5844 18.4813C21.7094 18.5594 21.8531 18.6 22 18.6C22.4406 18.6 22.8 18.2406 22.8 17.8V9.8C22.8 9.35938 22.4406 9 22 9Z" fill="white"/>
</svg>
