<svg width="24" height="24" viewBox="0 0 24 24" fill="none" xmlns="http://www.w3.org/2000/svg">
<path d="M18.8001 3.19995C18.1376 3.19995 17.6 3.73745 17.6 4.39995V4.4937L8.80005 7.19995V15.2L17.6 17.9093V18C17.6 18.6625 18.1376 19.2 18.8001 19.2C19.4626 19.2 20 18.6625 20 18V4.39995C20 3.73745 19.4626 3.19995 18.8001 3.19995ZM7.20005 7.35933L2.24067 7.8562C1.42192 7.93745 0.800049 8.62495 0.800049 9.44995V12.95C0.800049 13.775 1.42192 14.4625 2.24067 14.5437L4.18442 14.7375L5.1063 20.1343C5.1688 20.5187 5.50317 20.8 5.8938 20.8H6.40005C6.84067 20.8 7.20005 20.4406 7.20005 20L7.19692 15.0406H7.20005V7.35933ZM21.6 9.19995V13.2L21.9876 13.1031C22.7001 12.925 23.2001 12.2843 23.2001 11.55V10.85C23.2001 10.1156 22.7001 9.47495 21.9876 9.29683L21.6 9.19995Z" fill="white"/>
</svg>
