<svg width="24" height="24" viewBox="0 0 24 24" fill="none" xmlns="http://www.w3.org/2000/svg">
<path d="M20.8001 2.3999C20.4376 2.3999 20.1188 2.64678 20.0251 2.9999L18.9751 5.70303L17.4751 7.33115L14.6376 8.0124C14.322 8.05615 14.0345 8.22178 13.8407 8.47803L12.072 10.3812C11.8501 10.6187 11.7063 10.9155 11.6595 11.2374L11.2126 14.253C11.2063 14.2999 11.2001 14.3499 11.2001 14.3999C11.2001 14.8405 11.5595 15.1999 12.0001 15.1999C12.422 15.1999 12.7688 14.8749 12.8001 14.453L13.3876 11.5374L14.4001 10.6155V13.5999L12.847 20.5405C12.8157 20.6249 12.8001 20.7124 12.8001 20.7999C12.8001 21.2405 13.1595 21.5999 13.6001 21.5999C13.9688 21.5999 14.2876 21.3499 14.3751 20.9905H14.3782L16.6313 14.603L18.0063 16.9562L18.4001 20.7999C18.4001 21.2405 18.7595 21.5999 19.2001 21.5999C19.6407 21.5999 20.0001 21.2405 20.0001 20.7999V16.7905C20.0001 16.5562 19.9501 16.3249 19.8501 16.1124L18.4001 13.0187V9.15928C18.4001 9.15928 20.547 6.48115 20.5501 6.4624L21.5657 3.4499L21.5595 3.44678C21.5845 3.36865 21.6001 3.28428 21.6001 3.1999C21.6001 2.75928 21.2407 2.3999 20.8001 2.3999ZM2.4001 3.1999C1.95947 3.1999 1.6001 3.55928 1.6001 3.9999L1.60635 7.60303C1.60947 7.85303 1.7251 8.0874 1.9251 8.2374L4.14385 9.9124L3.28135 13.0905V13.0999C3.22822 13.2624 3.2001 13.4312 3.2001 13.5999C3.2001 13.6968 3.20947 13.7937 3.2251 13.8874V13.8968L3.99385 20.8155H4.0001C4.00947 21.2499 4.36572 21.5999 4.8001 21.5999C5.24072 21.5999 5.6001 21.2405 5.6001 20.7999C5.6001 20.7718 5.59697 20.7405 5.59385 20.7124L5.62822 15.1937L6.2001 14.8999L7.66572 16.7655L8.0001 20.7999C8.0001 21.2437 8.35947 21.5999 8.8001 21.5999C9.24072 21.5999 9.6001 21.2405 9.6001 20.7999V16.453C9.6001 16.1593 9.51885 15.8655 9.3626 15.6124L7.88447 13.2249L9.02822 10.1343L11.022 7.65303C11.1376 7.50928 11.2001 7.33428 11.2001 7.1499V3.9999C11.2001 3.55928 10.8407 3.1999 10.4001 3.1999C9.95947 3.1999 9.6001 3.55928 9.6001 3.9999V6.7124L8.44072 7.9999H4.8876L3.2001 6.83428V3.9999C3.2001 3.55928 2.84072 3.1999 2.4001 3.1999ZM15.2001 3.1999C14.3157 3.1999 13.6001 3.91553 13.6001 4.7999C13.6001 5.68428 14.3157 6.3999 15.2001 6.3999C16.0845 6.3999 16.8001 5.68428 16.8001 4.7999C16.8001 3.91553 16.0845 3.1999 15.2001 3.1999ZM6.4001 3.9999C5.51572 3.9999 4.8001 4.71553 4.8001 5.5999C4.8001 6.48428 5.51572 7.1999 6.4001 7.1999C7.28447 7.1999 8.0001 6.48428 8.0001 5.5999C8.0001 4.71553 7.28447 3.9999 6.4001 3.9999Z" fill="white"/>
</svg>
