<svg width="24" height="24" viewBox="0 0 24 24" fill="none" xmlns="http://www.w3.org/2000/svg">
<path d="M2.40005 3.19995C1.95942 3.19995 1.60005 3.55933 1.60005 3.99995V5.82183C1.12505 6.09995 0.800049 6.60933 0.800049 7.19995V18.4375C0.800049 19.2937 1.48442 19.9937 2.34067 20.0281C6.1938 20.1875 8.9688 20.9031 10.5282 21.425C10.7813 22.0156 11.3594 22.4 12 22.4C12.6407 22.4 13.2219 22.0156 13.4719 21.425C15.0344 20.9031 17.8094 20.1875 21.6594 20.0312C22.5157 19.9968 23.2001 19.2937 23.2001 18.4375V7.19995C23.2001 6.60933 22.8751 6.09995 22.4001 5.82183V3.99995C22.4001 3.55933 22.0407 3.19995 21.6 3.19995C17.9407 3.19995 15.4719 3.6062 13.8938 4.02495C12.6157 4.3687 12.2344 4.62808 12 4.76245C11.7657 4.62808 11.3844 4.3687 10.1063 4.02495C8.52817 3.6062 6.05942 3.19995 2.40005 3.19995ZM3.20005 4.8437C6.22505 4.9062 8.40005 5.22808 9.6938 5.57495C10.4782 5.7812 10.9219 5.9562 11.2 6.0812V18.8593C9.95005 18.4343 7.31567 17.7468 3.20005 17.65V4.8437ZM20.8001 4.8437V17.65C16.6844 17.7468 14.05 18.4343 12.8 18.8593V6.0812C13.0782 5.9562 13.5219 5.7812 14.3063 5.57495C15.6001 5.22808 17.7751 4.9062 20.8001 4.8437Z" fill="white"/>
</svg>
