<svg width="24" height="24" viewBox="0 0 24 24" fill="none" xmlns="http://www.w3.org/2000/svg">
<g clip-path="url(#clip0_145_15656)">
<path d="M12 4.80005C8.75 4.80005 6.075 6.35942 5.6 10.3157C5.6 13.6 18.4 13.6 18.4 10.3157C17.725 6.35317 15.25 4.80005 12 4.80005ZM18.7625 11.1657C18.8 11.3063 18.8344 11.45 18.8625 11.5969C18.8625 15.1844 5.14688 15.4782 5.14688 11.5969C5.1625 11.45 5.19062 11.3094 5.21875 11.1719C2.06875 11.9657 0 13.2938 0 14.8C0 17.2313 5.37188 19.2 12 19.2C18.6281 19.2 24 17.2313 24 14.8C24 13.2907 21.925 11.9594 18.7625 11.1657Z" fill="white"/>
</g>
<defs>
<clipPath id="clip0_145_15656">
<rect width="24" height="24" fill="white"/>
</clipPath>
</defs>
</svg>
