<svg width="69" height="22" viewBox="0 0 69 22" fill="none" xmlns="http://www.w3.org/2000/svg">
<g clip-path="url(#clip0_164_18483)">
<path d="M11.6835 15.2406C11.2992 15.8484 10.7737 16.2844 10.1078 16.5478C9.44148 16.8124 8.71101 16.9441 7.91702 16.9441C7.37914 16.9441 6.88577 16.8586 6.43765 16.6865C5.98887 16.5151 5.63654 16.2643 5.38038 15.9338C5.12423 15.6038 4.99603 15.1879 4.99603 14.686C4.99603 14.1311 5.13076 13.6555 5.40001 13.2593C5.66876 12.8631 6.07227 12.5462 6.61025 12.3083C7.14845 12.0709 7.80189 11.9518 8.57029 11.9518C9.62099 11.9518 10.5304 12.0842 11.2992 12.348C11.6244 12.4601 11.944 12.6036 12.2601 12.7675V12.8236C12.2601 13.8278 12.068 14.6332 11.6835 15.2406ZM13.3168 2.08639C12.1505 1.63761 10.7997 1.41309 9.26214 1.41309C7.6734 1.41309 6.22592 1.64469 4.91955 2.10596C3.61265 2.56895 2.5106 3.05111 1.61407 3.55236L3.42056 7.07867C3.7024 6.89414 4.11846 6.66928 4.66972 6.40517C5.22052 6.14146 5.86103 5.90987 6.59135 5.71183C7.32144 5.51365 8.1094 5.41452 8.95462 5.41452C9.92834 5.41452 10.7225 5.64612 11.3376 6.10802C11.9524 6.57035 12.2601 7.21119 12.2601 8.02958V10.1296C11.7102 9.82945 11.0458 9.56435 10.2615 9.33711C9.44148 9.09925 8.55752 8.9806 7.60983 8.9806C6.07227 8.9806 4.7335 9.21812 3.59353 9.69372C2.45323 10.169 1.56928 10.8494 0.941834 11.734C0.313553 12.6194 0 13.6823 0 14.9233C0 16.1384 0.275302 17.1621 0.826245 17.994C1.37702 18.8261 2.12659 19.4537 3.0748 19.876C4.02216 20.2983 5.09838 20.5102 6.30296 20.5102C7.53268 20.5102 8.64086 20.2923 9.62735 19.8564C10.6135 19.4202 11.4013 18.7867 11.9908 17.9542C12.09 17.8145 12.1777 17.668 12.2601 17.5186V20.1138H17.064V7.19732C17.064 5.9564 16.7309 4.9064 16.0645 4.04767C15.3981 3.18948 14.4825 2.53575 13.3168 2.08639Z" fill="white"/>
<path d="M38.6955 1.8877H32.7383L26.2435 8.31285V1.8877H21.4393V20.113H26.2435V10.8321L33.5455 20.113H39.4642L31.086 9.41541L38.6955 1.8877Z" fill="white"/>
<path d="M47.1732 11.4609V1.88798H42.3695V21.4999L54.591 10.5404V20.1133H59.3944V0.501221L47.1732 11.4609Z" fill="white"/>
<path d="M64.1993 17.6388C64.1993 19.0065 65.2745 20.1151 66.6008 20.1151C67.9275 20.1151 69.0033 19.0065 69.0033 17.6388C69.0033 16.2712 67.9275 15.1626 66.6008 15.1626C65.2745 15.1626 64.1993 16.2712 64.1993 17.6388Z" fill="#E74362"/>
</g>
<defs>
<clipPath id="clip0_164_18483">
<rect width="69" height="21" fill="white" transform="translate(0 0.5)"/>
</clipPath>
</defs>
</svg>
